<svg width="25" height="24" viewBox="0 0 25 24" fill="none" xmlns="http://www.w3.org/2000/svg">
<g id="Frame">
<path id="Vector" d="M18.5495 10.6254C18.5775 13.652 21.1984 14.6592 21.2275 14.672C21.2053 14.743 20.8087 16.1073 19.8467 17.5166C19.015 18.735 18.1519 19.9488 16.7922 19.974C15.4561 19.9986 15.0265 19.1799 13.499 19.1799C11.972 19.1799 11.4947 19.9489 10.23 19.9987C8.91751 20.0485 7.91805 18.6812 7.07953 17.4673C5.36604 14.9842 4.05657 10.4508 5.81485 7.39061C6.68833 5.87092 8.24929 4.90859 9.94358 4.88391C11.2324 4.85927 12.4488 5.753 13.2367 5.753C14.0241 5.753 15.5024 4.67821 17.0564 4.83605C17.707 4.8632 19.5332 5.09947 20.7058 6.81993C20.6114 6.87864 18.5268 8.095 18.5495 10.6254ZM16.0385 3.1933C16.7353 2.34789 17.2043 1.171 17.0764 0C16.072 0.04046 14.8575 0.67085 14.1371 1.5158C13.4914 2.26404 12.926 3.46164 13.0786 4.60946C14.1981 4.69628 15.3417 4.03925 16.0385 3.1933Z" fill="black"/>
</g>
</svg>
