<svg width="24" height="24" viewBox="0 0 24 24" fill="none" xmlns="http://www.w3.org/2000/svg">
<g id="Behance" clip-path="url(#clip0_63_1325)">
<g id="Layer 2">
<g id="Layer 1">
<path id="Vector" d="M18.6131 0H5.38691C2.4118 0 0 2.4118 0 5.38691V18.6131C0 21.5882 2.4118 24 5.38691 24H18.6131C21.5882 24 24 21.5882 24 18.6131V5.38691C24 2.4118 21.5882 0 18.6131 0Z" fill="#2A5AFC"/>
<path id="Vector_2" fill-rule="evenodd" clip-rule="evenodd" d="M5.37012 16.3021V7.70628H9.59319C10.0503 7.70092 10.5034 7.79155 10.9233 7.9723C11.2472 8.1048 11.5294 8.32224 11.74 8.60168C11.9507 8.88113 12.0821 9.21224 12.1204 9.56011C12.1851 9.95304 12.1508 10.3559 12.0206 10.7323C11.8763 11.0911 11.6078 11.3861 11.2641 11.5636L11.0979 11.655H11.1727C11.4857 11.7705 11.762 11.968 11.9726 12.2269C12.1832 12.4857 12.3204 12.7964 12.3698 13.1264C12.487 13.6884 12.4139 14.2733 12.1619 14.7891C11.9938 15.1516 11.7376 15.4662 11.4167 15.7044C11.0958 15.9425 10.7204 16.0965 10.3247 16.1524C9.96219 16.2138 9.59511 16.2443 9.22741 16.2439H5.37012V16.3021ZM7.35695 14.8057H9.21078C9.39506 14.8031 9.57872 14.7836 9.75945 14.7475C9.96313 14.7226 10.1536 14.6334 10.3031 14.4929C10.4526 14.3524 10.5534 14.1678 10.5908 13.9661C10.6129 13.8061 10.6129 13.6439 10.5908 13.4839C10.5841 13.2971 10.5197 13.1169 10.4066 12.9681C10.2935 12.8193 10.1372 12.7091 9.95896 12.6526C9.75874 12.5816 9.54792 12.545 9.33548 12.5445H7.35695V14.8057ZM7.35695 11.0897H9.22741C9.51549 11.0997 9.80143 11.0368 10.0587 10.9068C10.147 10.862 10.2247 10.7988 10.2863 10.7213C10.348 10.6438 10.3923 10.554 10.4162 10.4579C10.4502 10.2878 10.4502 10.1126 10.4162 9.94251C10.4044 9.79144 10.3449 9.64803 10.2462 9.53297C10.1476 9.41792 10.015 9.33718 9.86752 9.3024C9.5963 9.23037 9.31683 9.19404 9.03621 9.19433H7.37358L7.35695 11.0897ZM19.1865 13.4091H14.6974V13.6751C14.7182 13.8477 14.7659 14.016 14.8388 14.1739C14.9314 14.3673 15.07 14.5351 15.2424 14.6627C15.4149 14.7902 15.6159 14.8735 15.828 14.9054C16.0748 14.9563 16.3294 14.9563 16.5762 14.9054C16.7532 14.8718 16.9201 14.7982 17.0642 14.6901C17.2083 14.582 17.3257 14.4424 17.4075 14.282C17.4144 14.266 17.4262 14.2526 17.4411 14.2436C17.456 14.2347 17.4733 14.2307 17.4907 14.2321H19.12C19.12 14.3152 19.12 14.3983 19.0618 14.4732C18.9623 14.7833 18.7947 15.0674 18.5714 15.3045C18.1234 15.8113 17.5053 16.1366 16.8339 16.2189C16.2994 16.3069 15.7521 16.2786 15.2295 16.1358C14.6869 15.9921 14.193 15.7049 13.7996 15.3045C13.4915 14.9697 13.284 14.5548 13.2011 14.1074C13.0237 13.3144 13.0581 12.4887 13.3008 11.7132C13.4404 11.2076 13.725 10.754 14.1194 10.4083C14.5139 10.0626 15.0009 9.83996 15.5204 9.76793C16.2042 9.63305 16.9126 9.70244 17.5572 9.96745C18.1434 10.2153 18.6172 10.6713 18.8873 11.2477C19.0658 11.6308 19.1621 12.0471 19.1699 12.4697V13.3925C19.1948 13.3758 19.1948 13.3925 19.1865 13.4091ZM17.5239 12.345V12.1704C17.4964 11.9489 17.4092 11.739 17.2715 11.5633C17.1338 11.3876 16.951 11.2526 16.7425 11.1729C16.5125 11.0836 16.2648 11.0494 16.0192 11.0731C15.7843 11.0772 15.5558 11.1503 15.3622 11.2833C15.1685 11.4164 15.0183 11.6035 14.9302 11.8213C14.8773 11.9484 14.8329 12.079 14.7972 12.212C14.7943 12.2646 14.7943 12.3173 14.7972 12.3699L17.5239 12.345ZM14.3899 9.05301V8.05543H17.8481V9.04469L14.3899 9.05301Z" fill="white"/>
</g>
</g>
</g>
<defs>
<clipPath id="clip0_63_1325">
<rect width="24" height="24" fill="white"/>
</clipPath>
</defs>
</svg>
