<svg width="29" height="29" viewBox="0 0 29 29" fill="none" xmlns="http://www.w3.org/2000/svg">
<g id="Cart">
<path id="Vector" d="M2.18707 2.75504L4.86957 4.13254C5.76374 4.5917 6.40416 5.41337 6.60957 6.39212L9.21957 18.3304C9.61832 20.1308 11.2012 21.3996 13.0379 21.3996H23.1879" stroke="#1B2741" stroke-width="2" stroke-linecap="round" stroke-linejoin="round"/>
<path id="Vector_2" d="M6.92371 7.81787H25.0487C25.955 7.81787 26.6196 8.6637 26.4021 9.5337L25.7616 12.1921C24.9641 15.4787 22.0279 17.7867 18.6446 17.7867H9.11079" stroke="#1B2741" stroke-width="2" stroke-linejoin="round"/>
<path id="Vector_3" d="M13.8837 26.2571C14.6378 26.2571 15.2491 25.6458 15.2491 24.8917C15.2491 24.1375 14.6378 23.5262 13.8837 23.5262C13.1296 23.5262 12.5183 24.1375 12.5183 24.8917C12.5183 25.6458 13.1296 26.2571 13.8837 26.2571Z" fill="#1B2741"/>
<path id="Vector_4" d="M20.4088 26.2571C21.1629 26.2571 21.7742 25.6458 21.7742 24.8917C21.7742 24.1375 21.1629 23.5262 20.4088 23.5262C19.6546 23.5262 19.0433 24.1375 19.0433 24.8917C19.0433 25.6458 19.6546 26.2571 20.4088 26.2571Z" fill="#1B2741"/>
</g>
</svg>
