<svg width="20" height="20" viewBox="0 0 20 20" fill="none" xmlns="http://www.w3.org/2000/svg">
<path d="M15.1251 7.62061L14.8751 15.1875C14.8538 15.8355 14.5808 16.4498 14.114 16.8999C13.6473 17.3499 13.0235 17.6004 12.3751 17.5981H7.62508C6.97709 17.6004 6.35367 17.3503 5.88698 16.9008C5.42029 16.4512 5.14701 15.8376 5.12508 15.19L4.87508 7.62061C4.86961 7.45485 4.93021 7.29371 5.04355 7.17263C5.15689 7.05155 5.31369 6.98046 5.47945 6.97499C5.64521 6.96952 5.80636 7.03012 5.92744 7.14346C6.04851 7.25681 6.11961 7.4136 6.12508 7.57936L6.37508 15.1481C6.38753 15.4712 6.5247 15.7769 6.75778 16.001C6.99087 16.2252 7.30173 16.3502 7.62508 16.35H12.3751C12.6988 16.3502 13.0101 16.2248 13.2432 16.0001C13.4764 15.7755 13.6133 15.4692 13.6251 15.1456L13.8751 7.57936C13.8805 7.4136 13.9516 7.25681 14.0727 7.14346C14.1938 7.03012 14.3549 6.96952 14.5207 6.97499C14.6865 6.98046 14.8433 7.05155 14.9566 7.17263C15.0699 7.29371 15.1305 7.45485 15.1251 7.62061ZM15.952 5.10249C15.952 5.26825 15.8861 5.42722 15.7689 5.54443C15.6517 5.66164 15.4927 5.72749 15.327 5.72749H4.67383C4.50807 5.72749 4.3491 5.66164 4.23189 5.54443C4.11468 5.42722 4.04883 5.26825 4.04883 5.10249C4.04883 4.93673 4.11468 4.77776 4.23189 4.66055C4.3491 4.54334 4.50807 4.47749 4.67383 4.47749H6.61133C6.80936 4.47802 7.0005 4.40486 7.14757 4.27224C7.29463 4.13961 7.38709 3.95702 7.40695 3.75999C7.45307 3.29779 7.66962 2.86932 8.01439 2.55806C8.35916 2.24679 8.80746 2.07503 9.27195 2.07624H10.7282C11.1927 2.07503 11.641 2.24679 11.9858 2.55806C12.3305 2.86932 12.5471 3.29779 12.5932 3.75999C12.6131 3.95702 12.7055 4.13961 12.8526 4.27224C12.9997 4.40486 13.1908 4.47802 13.3888 4.47749H15.3263C15.4921 4.47749 15.6511 4.54334 15.7683 4.66055C15.8855 4.77776 15.9513 4.93673 15.9513 5.10249H15.952ZM8.49195 4.47749H11.5095C11.4273 4.28983 11.3736 4.09098 11.3501 3.88749C11.3346 3.73343 11.2625 3.59061 11.1477 3.48668C11.0329 3.38276 10.8837 3.32514 10.7288 3.32499H9.27258C9.11775 3.32514 8.96848 3.38276 8.8537 3.48668C8.73893 3.59061 8.66681 3.73343 8.65133 3.88749C8.6276 4.09101 8.5743 4.28986 8.49195 4.47749ZM9.12133 13.9469V8.62499C9.12133 8.45923 9.05548 8.30026 8.93827 8.18305C8.82106 8.06584 8.66209 7.99999 8.49633 7.99999C8.33057 7.99999 8.1716 8.06584 8.05439 8.18305C7.93718 8.30026 7.87133 8.45923 7.87133 8.62499V13.9494C7.87133 14.1151 7.93718 14.2741 8.05439 14.3913C8.1716 14.5085 8.33057 14.5744 8.49633 14.5744C8.66209 14.5744 8.82106 14.5085 8.93827 14.3913C9.05548 14.2741 9.12133 14.1151 9.12133 13.9494V13.9469ZM12.1301 13.9469V8.62499C12.1301 8.45923 12.0642 8.30026 11.947 8.18305C11.8298 8.06584 11.6708 7.99999 11.5051 7.99999C11.3393 7.99999 11.1803 8.06584 11.0631 8.18305C10.9459 8.30026 10.8801 8.45923 10.8801 8.62499V13.9494C10.8801 14.1151 10.9459 14.2741 11.0631 14.3913C11.1803 14.5085 11.3393 14.5744 11.5051 14.5744C11.6708 14.5744 11.8298 14.5085 11.947 14.3913C12.0642 14.2741 12.1301 14.1151 12.1301 13.9494V13.9469Z" fill="#EA4335"/>
</svg>
