<svg width="19" height="18" viewBox="0 0 19 18" fill="none" xmlns="http://www.w3.org/2000/svg">
<g id="Frame">
<g id="Group">
<path id="Vector" d="M9.33004 3.5625C10.6575 3.5625 11.8463 4.02 12.7838 4.9125L15.3525 2.34375C13.7925 0.8925 11.7563 0 9.33004 0C5.81254 0 2.77129 2.0175 1.29004 4.9575L4.28254 7.27875C4.99129 5.145 6.98254 3.5625 9.33004 3.5625Z" fill="#EA4335"/>
<path id="Vector_2" d="M17.9476 9.20625C17.9476 8.6175 17.8913 8.0475 17.8051 7.5H9.33008V10.8825H14.1826C13.9651 11.9925 13.3351 12.9375 12.3901 13.575L15.2888 15.825C16.9801 14.2575 17.9476 11.94 17.9476 9.20625Z" fill="#4285F4"/>
<path id="Vector_3" d="M4.27883 10.7212C4.09883 10.1775 3.99383 9.59999 3.99383 8.99999C3.99383 8.39999 4.09508 7.82249 4.27883 7.27874L1.28633 4.95749C0.675078 6.17249 0.330078 7.54499 0.330078 8.99999C0.330078 10.455 0.675078 11.8275 1.29008 13.0425L4.27883 10.7212Z" fill="#FBBC05"/>
<path id="Vector_4" d="M9.32988 18C11.7599 18 13.8036 17.2012 15.2886 15.8212L12.3899 13.5712C11.5836 14.115 10.5449 14.4337 9.32988 14.4337C6.98238 14.4337 4.99113 12.8512 4.27863 10.7175L1.28613 13.0387C2.77113 15.9825 5.81238 18 9.32988 18Z" fill="#34A853"/>
</g>
</g>
</svg>
