<svg width="24" height="24" viewBox="0 0 24 24" fill="none" xmlns="http://www.w3.org/2000/svg">
<path d="M23 3.00041C22.0424 3.67589 20.9821 4.19252 19.86 4.53041C19.2577 3.83792 18.4573 3.3471 17.567 3.12434C16.6767 2.90157 15.7395 2.95761 14.8821 3.28487C14.0247 3.61212 13.2884 4.19481 12.773 4.95413C12.2575 5.71344 11.9877 6.61275 12 7.53041V8.53041C10.2426 8.57598 8.50127 8.18622 6.93101 7.39586C5.36074 6.60549 4.01032 5.43905 3 4.00041C3 4.00041 -1 13.0004 8 17.0004C5.94053 18.3984 3.48716 19.0993 1 19.0004C10 24.0004 21 19.0004 21 7.50041C20.9991 7.22187 20.9723 6.94401 20.92 6.67041C21.9406 5.66391 22.6608 4.39312 23 3.00041Z" fill="white"/>
</svg>
