<svg width="24" height="24" viewBox="0 0 24 24" fill="none" xmlns="http://www.w3.org/2000/svg">
<path fill-rule="evenodd" clip-rule="evenodd" d="M3 2.00037H21V14.0004L17 18.0004H12L8 22.0004V18.0004H3V2.00037ZM12 7.00037C12 6.44808 11.5523 6.00037 11 6.00037C10.4477 6.00037 10 6.44808 10 7.00037V11.0004C10 11.5527 10.4477 12.0004 11 12.0004C11.5523 12.0004 12 11.5527 12 11.0004V7.00037ZM17 7.00037C17 6.44808 16.5523 6.00037 16 6.00037C15.4477 6.00037 15 6.44808 15 7.00037V11.0004C15 11.5527 15.4477 12.0004 16 12.0004C16.5523 12.0004 17 11.5527 17 11.0004V7.00037Z" fill="white"/>
</svg>
