<svg width="24" height="24" viewBox="0 0 24 24" fill="none" xmlns="http://www.w3.org/2000/svg">
<path d="M12.483 8.98985C11.8588 8.89729 11.2214 9.00391 10.6613 9.29453C10.1012 9.58516 9.64696 10.045 9.36327 10.6086C9.07957 11.1723 8.98083 11.811 9.08107 12.434C9.18132 13.057 9.47546 13.6325 9.92165 14.0787C10.3678 14.5249 10.9434 14.8191 11.5664 14.9193C12.1894 15.0195 12.8281 14.9208 13.3917 14.6371C13.9554 14.3534 14.4152 13.8992 14.7058 13.3391C14.9965 12.779 15.1031 12.1415 15.0105 11.5174C14.9161 10.8807 14.6194 10.2912 14.1643 9.83608C13.7092 9.38095 13.1197 9.08426 12.483 8.98985Z" fill="white"/>
<path fill-rule="evenodd" clip-rule="evenodd" d="M17 2.00037H7C4.23858 2.00037 2 4.23894 2 7.00037V17.0004C2 19.7618 4.23858 22.0004 7 22.0004H17C19.7614 22.0004 22 19.7618 22 17.0004V7.00037C22 4.23894 19.7614 2.00037 17 2.00037ZM9.74012 7.51929C10.6736 7.03491 11.7361 6.85722 12.7764 7.01148C13.8375 7.16884 14.82 7.66331 15.5785 8.42187C16.3371 9.18042 16.8315 10.1628 16.9889 11.224C17.1432 12.2643 16.9655 13.3268 16.4811 14.2603C15.9967 15.1938 15.2303 15.9508 14.2909 16.4236C13.3515 16.8964 12.287 17.061 11.2486 16.8939C10.2103 16.7268 9.25109 16.2366 8.50744 15.4929C7.76379 14.7493 7.27356 13.7901 7.10647 12.7518C6.93939 11.7134 7.10397 10.6489 7.5768 9.70945C8.04962 8.77005 8.80662 8.00366 9.74012 7.51929ZM17.5 5.50037C16.9477 5.50037 16.5 5.94808 16.5 6.50037C16.5 7.05265 16.9477 7.50037 17.5 7.50037H17.51C18.0623 7.50037 18.51 7.05265 18.51 6.50037C18.51 5.94808 18.0623 5.50037 17.51 5.50037H17.5Z" fill="white"/>
</svg>
