<svg width="24" height="24" viewBox="0 0 24 24" fill="none" xmlns="http://www.w3.org/2000/svg">
<g id="Instagram" clip-path="url(#clip0_63_1315)">
<g id="Layer 2">
<g id="Layer 1">
<path id="Vector" d="M18.6131 0H5.38691C2.4118 0 0 2.4118 0 5.38691V18.6131C0 21.5882 2.4118 24 5.38691 24H18.6131C21.5882 24 24 21.5882 24 18.6131V5.38691C24 2.4118 21.5882 0 18.6131 0Z" fill="url(#paint0_linear_63_1315)"/>
<g id="&#60;Group&#62;">
<path id="&#60;Compound Path&#62;" d="M8.31333 4.15662H15.7951C15.9614 4.23975 16.2108 4.23975 16.3771 4.32288C17.1067 4.44112 17.7888 4.7605 18.3469 5.24512C18.9049 5.72974 19.3167 6.3604 19.5361 7.06621C19.6588 7.47295 19.7423 7.89051 19.7854 8.31318V15.6287C19.6666 16.5559 19.3243 17.4403 18.7879 18.2058C18.3277 18.7389 17.7508 19.1588 17.102 19.4327C16.4532 19.7067 15.75 19.8273 15.047 19.7853H8.81212C7.69945 19.8393 6.60544 19.4845 5.73626 18.7877C5.20772 18.3311 4.79061 17.7596 4.51685 17.1169C4.24309 16.4743 4.11992 15.7776 4.15677 15.0801V9.26088C4.14304 8.84349 4.17088 8.42578 4.2399 8.01391C4.32385 7.16164 4.67427 6.3575 5.24137 5.71578C5.80848 5.07405 6.56341 4.62739 7.39889 4.43926L8.31333 4.15662ZM5.73626 12.0541V15.2962C5.70082 15.7091 5.75605 16.1247 5.89809 16.514C6.04014 16.9032 6.26555 17.2568 6.55857 17.5498C6.85158 17.8428 7.20509 18.0682 7.59437 18.2102C7.98364 18.3523 8.39926 18.4075 8.81212 18.3721C10.9735 18.4552 13.1349 18.4552 15.2964 18.3721C17.2084 18.3721 18.2891 17.2082 18.3722 15.2962C18.4553 13.1348 18.4553 10.9734 18.3722 8.81197C18.3938 8.40237 18.3289 7.99281 18.182 7.60988C18.035 7.22694 17.8092 6.87917 17.5192 6.58914C17.2292 6.29911 16.8814 6.07329 16.4985 5.92634C16.1155 5.77938 15.706 5.71457 15.2964 5.73611C13.1349 5.65298 10.9735 5.65298 8.81212 5.73611C8.39926 5.70067 7.98364 5.7559 7.59437 5.89794C7.20509 6.03998 6.85158 6.2654 6.55857 6.55841C6.26555 6.85142 6.04014 7.20494 5.89809 7.59422C5.75605 7.98349 5.70082 8.39911 5.73626 8.81197V12.0541Z" fill="white"/>
<path id="&#60;Compound Path&#62;_2" d="M8.01416 12.0873C8.01636 11.0077 8.44623 9.97286 9.20967 9.20942C9.97311 8.44598 11.0079 8.01611 12.0876 8.01392C13.1613 8.03518 14.1851 8.47117 14.9444 9.23053C15.7038 9.98988 16.1398 11.0137 16.161 12.0873C16.1588 13.167 15.729 14.2018 14.9655 14.9653C14.2021 15.7287 13.1673 16.1586 12.0876 16.1608C11.0139 16.1395 9.99013 15.7035 9.23077 14.9442C8.47142 14.1848 8.03543 13.161 8.01416 12.0873ZM12.0876 9.51028C11.5827 9.50207 11.0868 9.64482 10.6635 9.92023C10.2403 10.1956 9.90887 10.5912 9.71183 11.0561C9.51479 11.5211 9.46108 12.0343 9.55759 12.53C9.65409 13.0257 9.89641 13.4812 10.2535 13.8383C10.6106 14.1954 11.0661 14.4377 11.5618 14.5342C12.0575 14.6307 12.5707 14.577 13.0357 14.38C13.5006 14.1829 13.8962 13.8516 14.1716 13.4283C14.447 13.005 14.5897 12.5091 14.5815 12.0042C14.5815 11.3428 14.3188 10.7084 13.8511 10.2407C13.3834 9.77303 12.749 9.51028 12.0876 9.51028Z" fill="white"/>
<path id="&#60;Path&#62;" d="M15.2467 7.84766C15.242 7.7154 15.2647 7.58361 15.3132 7.46047C15.3616 7.33734 15.435 7.22551 15.5285 7.13193C15.6221 7.03836 15.7339 6.96504 15.8571 6.91655C15.9802 6.86806 16.112 6.84544 16.2443 6.85008C16.5031 6.86759 16.7468 6.97831 16.9302 7.16173C17.1136 7.34516 17.2243 7.58885 17.2418 7.84766C17.2418 8.11223 17.1367 8.36597 16.9497 8.55305C16.7626 8.74013 16.5088 8.84523 16.2443 8.84523C15.9797 8.84523 15.726 8.74013 15.5389 8.55305C15.3518 8.36597 15.2467 8.11223 15.2467 7.84766Z" fill="white"/>
</g>
</g>
</g>
</g>
<defs>
<linearGradient id="paint0_linear_63_1315" x1="-1.52962" y1="25.3301" x2="26.735" y2="-2.51888" gradientUnits="userSpaceOnUse">
<stop stop-color="#FED576"/>
<stop offset="0.26" stop-color="#F47133"/>
<stop offset="0.61" stop-color="#BC3081"/>
<stop offset="1" stop-color="#4C63D2"/>
</linearGradient>
<clipPath id="clip0_63_1315">
<rect width="24" height="24" fill="white"/>
</clipPath>
</defs>
</svg>
