<svg width="24" height="24" viewBox="0 0 24 24" fill="none" xmlns="http://www.w3.org/2000/svg">
<g id="website" clip-path="url(#clip0_63_1323)">
<path id="Vector" d="M12 0.375C5.58985 0.375 0.375 5.58985 0.375 12C0.375 18.4102 5.58985 23.625 12 23.625C18.4102 23.625 23.625 18.4102 23.625 12C23.625 5.58984 18.4102 0.375 12 0.375ZM16.9896 14.345C17.0539 13.5715 17.0892 12.7858 17.0892 12C17.0892 11.2142 17.0539 10.4285 16.9896 9.65497C19.8528 10.2784 21.375 11.3476 21.375 12C21.375 12.6524 19.8528 13.7216 16.9896 14.345ZM12 21.375C11.3476 21.375 10.2784 19.8528 9.65497 16.9896C10.4285 17.0539 11.2142 17.0892 12 17.0892C12.7858 17.0892 13.5715 17.0539 14.345 16.9896C13.7216 19.8528 12.6524 21.375 12 21.375ZM12 14.8392C11.0248 14.8392 10.1291 14.7866 9.29874 14.7013C9.21336 13.8709 9.16077 12.9752 9.16077 12C9.16077 11.0248 9.21337 10.1291 9.29874 9.29874C10.1291 9.21337 11.0248 9.16077 12 9.16077C12.9752 9.16077 13.8709 9.21337 14.7013 9.29874C14.7866 10.1291 14.8392 11.0248 14.8392 12C14.8392 12.9752 14.7866 13.8709 14.7013 14.7013C13.8709 14.7866 12.9752 14.8392 12 14.8392ZM2.625 12C2.625 11.3476 4.14715 10.2784 7.01038 9.65497C6.94606 10.4285 6.91077 11.2142 6.91077 12C6.91077 12.7858 6.94606 13.5715 7.01038 14.345C4.14715 13.7216 2.625 12.6524 2.625 12ZM12 2.625C12.6524 2.625 13.7216 4.14715 14.345 7.01038C13.5715 6.94606 12.7858 6.91077 12 6.91077C11.2142 6.91077 10.4285 6.94606 9.65497 7.01038C10.2784 4.14715 11.3476 2.625 12 2.625ZM20.6955 8.51344C19.5693 7.98111 18.1881 7.58254 16.6854 7.31456C16.4175 5.81186 16.0189 4.43066 15.4866 3.30451C17.8539 4.25725 19.7428 6.14612 20.6955 8.51344ZM8.51344 3.30455C7.98111 4.4307 7.58254 5.81191 7.31456 7.31456C5.81191 7.58254 4.4307 7.98102 3.30455 8.5134C4.25729 6.14607 6.14617 4.25729 8.51344 3.30455ZM3.3046 15.4866C4.43075 16.019 5.81191 16.4175 7.31456 16.6854C7.58254 18.1881 7.98102 19.5693 8.5134 20.6954C6.14617 19.7427 4.25734 17.8538 3.3046 15.4866ZM15.4866 20.6954C16.019 19.5693 16.4175 18.1881 16.6854 16.6854C18.1881 16.4175 19.5693 16.0189 20.6954 15.4866C19.7427 17.8538 17.8539 19.7427 15.4866 20.6954Z" fill="black"/>
</g>
<defs>
<clipPath id="clip0_63_1323">
<rect width="24" height="24" fill="white"/>
</clipPath>
</defs>
</svg>
